# xmcd CD database file
#
# Track frame offsets:
#	150
#	19444
#	39759
#	58996
#	78643
#	96175
#	125499
#	149684
#	170254
#	191033
#	212315
#	233035
#	254169
#	275766
#	296716
#	323260
#
# Disc length: 4560 seconds
#
# Revision: 0
# Processed by: cddbd v1.4PL0 Copyright (c) Steve Scherf et al.
# Submitted via: CdAid 2001.05.15.01
#
DISCID=f211ce10
DTITLE=Santana - Shaman
DYEAR=1900
DGENRE=
TTITLE0=Adouma
TTITLE1=Nothing At All (Featuring Musiq)
TTITLE2=The Game Of Love (Featuring Michelle Branch)
TTITLE3=You Are My Kind (Featuring Seal)
TTITLE4=Amore (Sexo) (Featuring Macy Gray)
TTITLE5=Foo Foo
TTITLE6=Victory Is Won
TTITLE7=Since Supernatural (Featuring Melkie Jean and Governor Washington)
TTITLE8=America (Featuring P.O.D.)
TTITLE9=Sideways (Featuring Citizen Cope)
TTITLE10=Why Don't You and I (Featuring Chad Kroeger from Nickelback)
TTITLE11=Feels Like Fire (Featuring Dido)
TTITLE12=Aye Aye Aye
TTITLE13=Hoy Es Adios (Featuring Alejandro Lerner)
TTITLE14=One Of These Days (Featuring Ozomatli)
TTITLE15=Novus (Featuring Placido Domingo)
EXTD=Year 2000
EXTT0=
EXTT1=
EXTT2=
EXTT3=
EXTT4=
EXTT5=
EXTT6=
EXTT7=
EXTT8=
EXTT9=
EXTT10=
EXTT11=
EXTT12=
EXTT13=
EXTT14=
EXTT15=
PLAYORDER=
